<svg width="495" height="76" viewBox="0 0 495 76" fill="none" xmlns="http://www.w3.org/2000/svg">
<path d="M1.435 75.2523C1.006 75.2523 1.006 74.8233 1.435 73.9653C1.97125 73 2.45388 71.9275 2.88288 70.7477C3.41913 69.568 3.95538 68.281 4.49163 66.8867C5.56413 64.3127 6.74388 61.417 8.03088 58.1995C9.31788 54.982 10.5513 51.8717 11.731 48.8687C12.9108 45.7585 13.9296 43.1309 14.7876 40.9859C15.7529 38.7336 16.3964 37.2857 16.7181 36.6422C15.2166 38.251 13.3934 40.2887 11.2484 42.7555C9.21063 45.115 7.28013 47.4209 5.45688 49.6731C3.63363 51.9254 2.23938 53.695 1.27413 54.982C0.952375 55.411 0.68425 55.6255 0.46975 55.6255C0.25525 55.6255 0.148 55.3574 0.148 54.8211C0.148 53.9631 0.416125 53.1587 0.952375 52.408C2.99013 49.834 5.24238 46.9382 7.70913 43.7207C10.2831 40.5032 12.589 37.5539 14.6268 34.8726C16.6645 32.0841 17.9515 30.2609 18.4878 29.4029C19.6675 29.1884 21.3835 28.8666 23.6358 28.4376C25.9953 28.0086 27.604 27.4187 28.462 26.668C28.7838 26.3462 29.1055 26.1854 29.4273 26.1854C29.6418 26.1854 29.749 26.3999 29.749 26.8289C29.8563 27.1506 29.749 27.526 29.4273 27.955C28.7838 28.5985 27.8185 29.9927 26.5315 32.1377C25.3518 34.2827 24.0111 36.7495 22.5096 39.538C21.0081 42.3265 19.5603 45.0077 18.166 47.5817C19.2385 45.973 20.6328 44.0961 22.3488 41.9511C24.172 39.6989 26.1561 37.5539 28.3011 35.5161C30.4461 33.3711 32.5911 31.6015 34.7361 30.2072C36.9884 28.813 39.0798 28.1159 41.0103 28.1159C42.4045 28.1159 43.5843 28.4376 44.5495 29.0811C45.5148 29.6174 46.2655 30.6362 46.8018 32.1377C47.1235 32.8885 47.2844 33.7465 47.2844 34.7117C47.2844 36.535 46.8018 38.3046 45.8365 40.0206C44.9785 41.6294 44.335 42.8627 43.906 43.7207C43.7988 44.0425 43.4234 44.3642 42.7799 44.686C42.1364 44.9005 41.8683 44.7932 41.9755 44.3642C42.0828 43.828 42.1364 43.2917 42.1364 42.7555C42.2436 42.2192 42.2972 41.6294 42.2972 40.9859C42.2972 39.1626 41.9219 37.5002 41.1711 35.9987C40.5276 34.4972 39.2943 33.7465 37.471 33.7465C35.755 33.7465 33.6636 34.819 31.1969 36.964C28.7301 39.109 26.2634 41.5757 23.7966 44.3642C20.6864 48.0107 18.2196 51.4964 16.3964 54.8211C14.5731 58.0386 13.0716 61.2025 11.8919 64.3127C11.2484 66.0287 10.6049 67.7447 9.96138 69.4607C9.31788 71.0695 8.83525 72.3565 8.5135 73.3218C7.11925 73.429 5.725 73.7508 4.33075 74.287C2.9365 74.9305 1.97125 75.2523 1.435 75.2523ZM53.4718 74.287C49.0745 74.287 46.0179 73.429 44.3019 71.713C42.5859 69.997 41.7279 67.9056 41.7279 65.4389C41.7279 62.3286 42.5323 59.0039 44.141 55.4646C45.857 51.9254 47.4658 48.9224 48.9673 46.4556C50.6833 43.8816 52.9892 41.2004 55.8849 38.4119C58.7807 35.6234 61.9445 33.2639 65.3765 31.3334C68.8085 29.4029 72.1333 28.4376 75.3508 28.4376C78.1393 28.4376 80.0698 29.1347 81.1423 30.529C82.2148 31.816 82.751 33.3711 82.751 35.1944C82.751 38.5191 81.7322 41.254 79.6944 43.399C77.7639 45.544 75.3508 47.3136 72.455 48.7079C69.5593 49.9949 66.7708 51.0674 64.0895 51.9254C62.4808 52.3544 60.6039 52.7834 58.4589 53.2124C56.3139 53.6414 54.2762 53.8559 52.3457 53.8559C51.5949 55.7864 51.005 57.6632 50.576 59.4865C50.147 61.3097 49.9325 62.9721 49.9325 64.4736C49.9325 66.2969 50.3615 67.7984 51.2195 68.9781C52.1848 70.1579 53.7399 70.7477 55.8849 70.7477C56.7429 70.7477 57.7618 70.6405 58.9415 70.426C60.1213 70.2115 61.4083 69.8897 62.8025 69.4607C66.02 68.3882 69.1839 66.6722 72.2942 64.3127C75.4044 61.9532 78.2465 59.4329 80.8205 56.7516C83.5018 53.9631 85.5395 51.6572 86.9338 49.834C87.2555 50.1557 87.4164 50.5311 87.4164 50.9601C87.4164 51.4964 87.041 52.3544 86.2903 53.5341C84.1453 56.5371 81.3568 59.6474 77.9248 62.8649C74.4928 66.0824 70.6854 68.8173 66.5027 71.0695C62.3199 73.2145 57.9763 74.287 53.4718 74.287ZM53.6327 50.6384C55.0269 50.7456 56.582 50.7456 58.298 50.6384C60.1213 50.4239 61.8909 50.0485 63.6069 49.5122C68.0042 48.2252 71.168 46.1875 73.0985 43.399C75.1363 40.5032 76.1552 37.9292 76.1552 35.677C76.1552 34.39 75.887 33.3175 75.3508 32.4595C74.8145 31.6015 73.9565 31.1725 72.7768 31.1725C69.6665 31.1725 66.878 32.3522 64.4113 34.7117C61.9445 36.964 59.7995 39.5916 57.9763 42.5946C56.153 45.5976 54.7052 48.2789 53.6327 50.6384ZM91.1203 74.287C87.152 74.287 84.3635 73.5363 82.7548 72.0347C81.146 70.5332 80.3417 68.6027 80.3417 66.2432C80.3417 63.133 81.3605 59.701 83.3983 55.9472C85.436 52.0862 87.3665 48.8687 89.1898 46.2947C91.013 43.828 93.0508 41.5221 95.303 39.3771C97.6625 37.1249 100.183 35.1944 102.864 33.5856C104.58 32.5131 106.886 31.387 109.782 30.2072C112.785 28.9202 115.305 28.2767 117.343 28.2767C119.81 28.2767 121.526 28.8666 122.491 30.0464C123.456 31.1189 123.939 32.4595 123.939 34.0682C123.939 35.3552 123.724 36.6959 123.295 38.0901C122.866 39.3771 122.384 40.6105 121.847 41.7902C121.526 42.4337 121.043 42.9164 120.4 43.2381C119.756 43.4526 119.434 43.3454 119.434 42.9164C119.434 42.3801 119.488 41.8975 119.595 41.4685C119.702 41.0395 119.756 40.5569 119.756 40.0206C119.756 37.9829 119.273 35.9987 118.308 34.0682C117.45 32.0305 116.11 31.0116 114.286 31.0116C112.356 31.0116 110.264 31.7087 108.012 33.103C105.76 34.39 104.205 35.5161 103.347 36.4814C100.558 39.3771 97.8234 42.97 95.1422 47.26C92.5682 51.55 90.6913 55.6255 89.5115 59.4865C88.7608 61.7387 88.3854 63.6692 88.3854 65.278C88.3854 67.1012 88.868 68.3882 89.8333 69.139C90.7985 69.8897 91.9783 70.2651 93.3725 70.2651C94.445 70.2651 95.5712 70.1042 96.7509 69.7825C98.0379 69.4607 99.3785 69.0854 100.773 68.6564C103.99 67.5839 107.208 65.9215 110.425 63.6692C113.75 61.3097 116.753 58.843 119.434 56.269C122.116 53.5877 124.153 51.2819 125.548 49.3514C125.762 49.5659 125.869 49.8876 125.869 50.3166C125.869 50.8529 125.655 51.4964 125.226 52.2471C124.797 52.8906 124.475 53.4269 124.261 53.8559C122.008 56.8589 119.059 59.9691 115.412 63.1866C111.766 66.2969 107.798 68.9245 103.508 71.0695C99.3249 73.2145 95.1958 74.287 91.1203 74.287ZM131.867 74.287C127.47 74.287 124.413 73.429 122.697 71.713C120.981 69.997 120.123 67.9056 120.123 65.4389C120.123 62.3286 120.927 59.0039 122.536 55.4646C124.252 51.9254 125.861 48.9224 127.362 46.4556C129.078 43.8816 131.384 41.2004 134.28 38.4119C137.176 35.6234 140.34 33.2639 143.772 31.3334C147.204 29.4029 150.528 28.4376 153.746 28.4376C156.534 28.4376 158.465 29.1347 159.537 30.529C160.61 31.816 161.146 33.3711 161.146 35.1944C161.146 38.5191 160.127 41.254 158.09 43.399C156.159 45.544 153.746 47.3136 150.85 48.7079C147.954 49.9949 145.166 51.0674 142.485 51.9254C140.876 52.3544 138.999 52.7834 136.854 53.2124C134.709 53.6414 132.671 53.8559 130.741 53.8559C129.99 55.7864 129.4 57.6632 128.971 59.4865C128.542 61.3097 128.328 62.9721 128.328 64.4736C128.328 66.2969 128.757 67.7984 129.615 68.9781C130.58 70.1579 132.135 70.7477 134.28 70.7477C135.138 70.7477 136.157 70.6405 137.337 70.426C138.516 70.2115 139.803 69.8897 141.198 69.4607C144.415 68.3882 147.579 66.6722 150.689 64.3127C153.8 61.9532 156.642 59.4329 159.216 56.7516C161.897 53.9631 163.935 51.6572 165.329 49.834C165.651 50.1557 165.812 50.5311 165.812 50.9601C165.812 51.4964 165.436 52.3544 164.685 53.5341C162.54 56.5371 159.752 59.6474 156.32 62.8649C152.888 66.0824 149.081 68.8173 144.898 71.0695C140.715 73.2145 136.371 74.287 131.867 74.287ZM132.028 50.6384C133.422 50.7456 134.977 50.7456 136.693 50.6384C138.516 50.4239 140.286 50.0485 142.002 49.5122C146.399 48.2252 149.563 46.1875 151.494 43.399C153.531 40.5032 154.55 37.9292 154.55 35.677C154.55 34.39 154.282 33.3175 153.746 32.4595C153.21 31.6015 152.352 31.1725 151.172 31.1725C148.062 31.1725 145.273 32.3522 142.806 34.7117C140.34 36.964 138.195 39.5916 136.371 42.5946C134.548 45.5976 133.1 48.2789 132.028 50.6384ZM196.221 11.5457C194.719 11.5457 193.647 11.0631 193.003 10.0979C192.574 9.56162 192.36 8.8645 192.36 8.0065C192.36 6.2905 193.164 4.89625 194.773 3.82375C195.953 3.18025 197.025 2.8585 197.99 2.8585C199.599 2.8585 200.725 3.34112 201.369 4.30637C201.798 4.84262 202.012 5.53975 202.012 6.39774C202.012 8.11374 201.154 9.508 199.438 10.5805C198.473 11.224 197.4 11.5457 196.221 11.5457ZM168.228 73.4826C167.156 73.4826 166.244 73.2681 165.494 72.8391C164.85 72.4101 164.528 71.6057 164.528 70.426C164.528 68.9245 164.904 67.1549 165.654 65.1171C166.512 63.0794 167.424 61.0416 168.389 59.0039C169.462 56.9661 170.266 55.3037 170.802 54.0167C171.553 52.5152 172.465 50.5847 173.537 48.2252C174.717 45.7585 175.79 43.4526 176.755 41.3076C177.827 39.0554 178.578 37.5002 179.007 36.6422C177.506 38.251 175.682 40.2887 173.537 42.7555C171.5 45.115 169.569 47.4209 167.746 49.6731C165.923 51.9254 164.528 53.695 163.563 54.982C163.241 55.411 162.973 55.6255 162.759 55.6255C162.544 55.6255 162.437 55.3574 162.437 54.8211C162.437 53.9631 162.705 53.1587 163.241 52.408C165.279 49.834 167.531 46.9382 169.998 43.7207C172.572 40.5032 174.878 37.5539 176.916 34.8726C178.953 32.0841 180.24 30.2609 180.777 29.4029C181.956 29.1884 183.672 28.8666 185.925 28.4376C188.284 28.0086 189.893 27.4187 190.751 26.668C191.073 26.3462 191.394 26.1854 191.716 26.1854C191.931 26.1854 192.038 26.3999 192.038 26.8289C192.145 27.1506 192.038 27.526 191.716 27.955C191.073 28.7057 189.947 30.529 188.338 33.4247C186.729 36.3205 185.013 39.538 183.19 43.0772C181.474 46.5092 179.865 49.6195 178.364 52.408C176.862 55.3037 175.575 58.0922 174.503 60.7735C173.43 63.4547 172.894 65.3852 172.894 66.565C172.894 68.0665 173.645 68.8172 175.146 68.8172C176.54 68.8172 178.31 67.9592 180.455 66.2432C182.707 64.5272 184.959 62.4895 187.212 60.13C189.464 57.6632 191.448 55.411 193.164 53.3732C193.7 52.7297 194.344 51.979 195.095 51.121C195.953 50.1557 196.489 49.5659 196.703 49.3514C196.918 49.5659 197.025 49.9412 197.025 50.4775C196.918 51.2282 196.65 51.979 196.221 52.7297C195.792 53.3732 195.363 53.9631 194.934 54.4994C192.681 57.2879 190.215 60.1836 187.533 63.1866C184.852 66.0824 181.903 68.5491 178.685 70.5869C175.468 72.5174 171.982 73.4826 168.228 73.4826ZM200.143 73.4826C199.071 73.4826 198.159 73.2681 197.408 72.8391C196.658 72.4101 196.282 71.6057 196.282 70.426C196.282 68.9245 196.658 67.1549 197.408 65.1171C198.266 63.0794 199.178 61.0416 200.143 59.0039C201.109 56.9661 201.913 55.3037 202.556 54.0167C203.093 53.0515 203.79 51.55 204.648 49.5122C205.613 47.3672 206.578 45.1686 207.544 42.9164C208.616 40.5569 209.474 38.5727 210.118 36.964C210.868 35.3552 211.244 34.5509 211.244 34.5509C210.278 35.6234 208.991 37.1249 207.383 39.0554C205.881 40.9859 204.219 43.0236 202.396 45.1686C200.68 47.2064 199.071 49.1369 197.569 50.9601C196.175 52.7834 195.156 54.124 194.513 54.982C194.191 55.411 193.923 55.6255 193.708 55.6255C193.494 55.6255 193.387 55.3574 193.387 54.8211C193.387 53.9631 193.655 53.1587 194.191 52.408C195.478 50.7992 197.033 48.8687 198.856 46.6165C200.68 44.257 202.503 41.8975 204.326 39.538C206.257 37.1785 207.919 35.0871 209.313 33.2639C208.455 33.2639 207.329 33.3175 205.935 33.4247C204.648 33.532 203.468 33.6929 202.396 33.9074C201.323 34.0146 200.733 34.0682 200.626 34.0682C200.09 34.0682 200.143 33.6392 200.787 32.7812C201.43 31.9232 202.288 31.0652 203.361 30.2072C204.433 29.3492 205.238 28.9202 205.774 28.9202C205.881 28.9202 206.739 28.9739 208.348 29.0811C209.957 29.0811 211.136 29.0811 211.887 29.0811C214.032 26.1854 216.124 22.8606 218.161 19.1069C220.306 15.3531 222.398 11.224 224.435 6.7195C225.293 6.61225 226.741 6.02237 228.779 4.94987C230.924 3.77012 232.586 2.59037 233.766 1.41062C234.302 0.874372 234.731 0.606247 235.053 0.606247C235.697 0.606247 235.697 1.03525 235.053 1.89324C234.302 2.75125 233.015 4.5745 231.192 7.363C229.369 10.0442 227.331 13.3154 225.079 17.1764C222.827 20.9301 220.682 24.8984 218.644 29.0811H231.675C232.855 29.0811 233.444 29.242 233.444 29.5637C233.444 29.9927 232.64 30.4217 231.031 30.8507C229.208 31.387 227.278 31.7087 225.24 31.816C223.309 31.9232 221.486 32.1377 219.77 32.4595C218.161 32.7812 216.982 33.4784 216.231 34.5509C215.587 35.3016 214.676 36.9104 213.496 39.3771C212.316 41.8439 211.029 44.686 209.635 47.9035C208.348 51.0137 207.222 54.1776 206.257 57.3951C205.291 60.5054 204.701 63.133 204.487 65.278V65.9215C204.487 66.7795 204.755 67.4766 205.291 68.0129C205.828 68.5491 206.364 68.8172 206.9 68.8172C208.294 68.8172 210.064 67.9592 212.209 66.2432C214.461 64.5272 216.767 62.4895 219.127 60.13C221.486 57.6632 223.524 55.411 225.24 53.3732C225.991 52.5152 226.634 51.7109 227.17 50.9601C227.814 50.2094 228.189 49.7267 228.296 49.5122C228.511 49.9412 228.618 50.263 228.618 50.4775C228.618 51.121 228.404 51.8181 227.975 52.5689C227.653 53.3196 227.278 53.9631 226.849 54.4994C224.811 57.1806 222.344 60.0227 219.448 63.0257C216.553 65.9215 213.442 68.3882 210.118 70.426C206.9 72.4637 203.575 73.4826 200.143 73.4826ZM247.479 73.4826C246.407 73.4826 245.495 73.2681 244.745 72.8391C243.994 72.4101 243.618 71.6057 243.618 70.426C243.618 68.9245 243.994 67.2085 244.745 65.278C245.495 63.3475 246.353 61.4706 247.319 59.6474C248.284 57.7169 249.142 56.1617 249.893 54.982C246.139 58.9502 242.224 62.704 238.149 66.2432C236.111 67.9592 233.859 69.568 231.392 71.0695C228.925 72.571 226.298 73.3218 223.509 73.3218C222.437 73.3218 221.686 73 221.257 72.3565C220.828 71.6057 220.613 70.7477 220.613 69.7825C220.613 69.2462 220.667 68.8709 220.774 68.6564C221.31 64.4736 222.651 60.13 224.796 55.6255C226.941 51.121 229.569 46.8846 232.679 42.9164C235.789 38.9481 238.953 35.7306 242.171 33.2639C245.817 30.4754 249.839 29.0811 254.236 29.0811H272.737C273.273 29.0811 273.541 29.2956 273.541 29.7246C273.541 30.5826 273.059 31.0116 272.093 31.0116C271.021 31.0116 269.948 31.7087 268.876 33.103C267.803 34.39 266.999 35.4625 266.463 36.3205C265.712 37.5002 264.532 39.4844 262.923 42.2729C261.315 45.0614 259.652 48.118 257.936 51.4427C256.328 54.6602 254.933 57.6632 253.754 60.4517C252.574 63.2402 251.984 65.278 251.984 66.565C251.984 68.0665 252.735 68.8172 254.236 68.8172C255.845 68.8172 257.668 68.0665 259.706 66.565C261.744 65.0635 263.781 63.2402 265.819 61.0952C267.964 58.843 269.895 56.6444 271.611 54.4994C273.434 52.2471 274.882 50.4775 275.954 49.1905C276.598 49.834 276.544 50.7456 275.793 51.9254C275.15 52.9979 274.56 53.8559 274.024 54.4994C271.879 57.2879 269.412 60.1836 266.624 63.1866C263.835 66.0824 260.778 68.5491 257.454 70.5869C254.236 72.5174 250.911 73.4826 247.479 73.4826ZM230.105 67.852C231.392 67.852 233.162 66.9404 235.414 65.1171C237.773 63.1866 240.294 60.8271 242.975 58.0386C245.656 55.1429 248.177 52.1399 250.536 49.0296C252.896 45.8121 254.826 42.9164 256.328 40.3424C257.936 37.6611 258.741 35.6234 258.741 34.2291C258.741 33.0494 258.365 32.245 257.615 31.816C256.971 31.387 256.113 31.1725 255.041 31.1725C253.325 31.1725 251.448 31.816 249.41 33.103C247.479 34.2827 245.924 35.4625 244.745 36.6422C243.458 37.822 241.902 39.6989 240.079 42.2729C238.363 44.7396 236.647 47.4745 234.931 50.4775C233.215 53.4805 231.767 56.3762 230.588 59.1647C229.408 61.9532 228.818 64.2055 228.818 65.9215C228.818 67.2085 229.247 67.852 230.105 67.852ZM282.541 75.574C280.611 75.574 278.573 75.3059 276.428 74.7696C274.283 74.2334 272.353 73.3754 270.637 72.1956C269.028 70.9086 267.955 69.1926 267.419 67.0476C267.312 66.7259 267.258 66.2432 267.258 65.5997C267.258 64.0982 267.58 62.4359 268.224 60.6126C268.974 58.7894 269.886 57.5024 270.958 56.7516C271.387 56.5371 271.709 56.5371 271.924 56.7516C272.245 56.9661 272.299 57.1806 272.085 57.3951C271.977 57.7169 271.816 58.1459 271.602 58.6821C271.387 59.1111 271.227 59.5937 271.119 60.13C270.798 62.9185 271.387 65.3852 272.889 67.5302C273.532 68.3882 274.283 69.1926 275.141 69.9434C276.106 70.6941 277.018 71.3376 277.876 71.8739C278.627 72.3029 279.538 72.6246 280.611 72.8391C281.683 72.9464 282.756 73 283.828 73C285.544 73 287.207 72.7855 288.816 72.3565C290.424 71.9275 291.604 71.2304 292.355 70.2651C293.749 68.5491 294.446 66.6186 294.446 64.4736C294.446 62.8649 294.017 61.1489 293.159 59.3256C292.301 57.5024 290.961 55.5719 289.137 53.5341C287.958 52.2471 286.831 50.8529 285.759 49.3514C284.686 47.8499 283.989 46.2411 283.668 44.5251C283.56 44.2034 283.453 43.8816 283.346 43.5599C283.346 43.2381 283.346 42.9164 283.346 42.5946C281.952 44.6324 280.504 46.5629 279.002 48.3861C277.608 50.1021 276.375 51.6036 275.302 52.8906C274.873 53.5341 274.498 53.8559 274.176 53.8559C273.961 53.8559 273.854 53.6414 273.854 53.2124C273.854 52.2471 274.283 51.2282 275.141 50.1557C275.999 49.1905 276.964 48.0107 278.037 46.6165C279.109 45.115 279.967 43.9352 280.611 43.0772C282.434 40.396 283.775 38.3046 284.633 36.8031C285.598 35.1944 286.617 33.7465 287.689 32.4595C288.869 31.0652 290.317 29.9391 292.033 29.0811C293.856 28.2231 295.733 27.7941 297.664 27.7941C299.916 27.7941 301.954 28.1695 303.777 28.9202C305.707 29.5637 306.726 31.2797 306.834 34.0682C306.834 35.3552 306.565 36.6959 306.029 38.0901C305.6 39.3771 305.118 40.6105 304.581 41.7902C304.26 42.4337 303.777 42.9164 303.133 43.2381C302.597 43.4526 302.329 43.3454 302.329 42.9164C302.329 42.4874 302.383 42.0047 302.49 41.4685C302.597 40.9322 302.651 40.4496 302.651 40.0206C302.651 38.1974 302.329 36.5886 301.686 35.1944C301.149 33.6929 300.345 32.6204 299.272 31.9769C298.2 31.2261 297.074 30.8507 295.894 30.8507C294.178 30.8507 292.516 31.5479 290.907 32.9421C289.298 34.2291 288.494 35.9451 288.494 38.0901C288.494 38.3046 288.494 38.5727 288.494 38.8945C288.494 39.2162 288.547 39.4844 288.655 39.6989C289.084 41.4149 290.371 43.3454 292.516 45.4904C294.661 47.6354 296.323 49.5122 297.503 51.121C299.541 53.9095 300.559 56.7516 300.559 59.6474C300.559 62.5431 299.701 65.2244 297.985 67.6911C296.377 70.0506 294.178 71.9275 291.39 73.3218C288.708 74.8233 285.759 75.574 282.541 75.574ZM316.071 73.9653C314.999 73.9653 313.873 73.5899 312.693 72.8391C311.62 71.9811 310.762 71.1767 310.119 70.426C310.012 70.2115 310.441 69.7825 311.406 69.139C312.371 68.3882 313.39 67.6911 314.463 67.0476C315.642 66.4041 316.286 66.136 316.393 66.2432C317.251 66.6722 318.109 67.1549 318.967 67.6911C319.825 68.1201 320.737 68.281 321.702 68.1737H322.345C322.882 68.1737 323.15 68.3346 323.15 68.6564C323.15 68.9781 322.774 69.5144 322.024 70.2651C321.058 71.0159 320.04 71.8202 318.967 72.6782C318.002 73.5363 317.037 73.9653 316.071 73.9653ZM341.074 74.287C337.105 74.287 334.317 73.5363 332.708 72.0347C331.099 70.5332 330.295 68.6027 330.295 66.2432C330.295 63.133 331.314 59.701 333.352 55.9472C335.389 52.0862 337.32 48.8687 339.143 46.2947C340.966 43.828 343.004 41.5221 345.256 39.3771C347.616 37.1249 350.136 35.1944 352.817 33.5856C354.533 32.5131 356.839 31.387 359.735 30.2072C362.738 28.9202 365.258 28.2767 367.296 28.2767C369.763 28.2767 371.479 28.8666 372.444 30.0464C373.409 31.1189 373.892 32.4595 373.892 34.0682C373.892 35.3552 373.678 36.6959 373.249 38.0901C372.82 39.3771 372.337 40.6105 371.801 41.7902C371.479 42.4337 370.996 42.9164 370.353 43.2381C369.709 43.4526 369.388 43.3454 369.388 42.9164C369.388 42.3801 369.441 41.8975 369.548 41.4685C369.656 41.0395 369.709 40.5569 369.709 40.0206C369.709 37.9829 369.227 35.9987 368.261 34.0682C367.403 32.0305 366.063 31.0116 364.24 31.0116C362.309 31.0116 360.218 31.7087 357.965 33.103C355.713 34.39 354.158 35.5161 353.3 36.4814C350.512 39.3771 347.777 42.97 345.095 47.26C342.521 51.55 340.645 55.6255 339.465 59.4865C338.714 61.7387 338.339 63.6692 338.339 65.278C338.339 67.1012 338.821 68.3882 339.787 69.139C340.752 69.8897 341.932 70.2651 343.326 70.2651C344.398 70.2651 345.524 70.1042 346.704 69.7825C347.991 69.4607 349.332 69.0854 350.726 68.6564C353.944 67.5839 357.161 65.9215 360.379 63.6692C363.703 61.3097 366.706 58.843 369.388 56.269C372.069 53.5877 374.107 51.2819 375.501 49.3514C375.715 49.5659 375.823 49.8876 375.823 50.3166C375.823 50.8529 375.608 51.4964 375.179 52.2471C374.75 52.8906 374.428 53.4269 374.214 53.8559C371.962 56.8589 369.012 59.9691 365.366 63.1866C361.719 66.2969 357.751 68.9245 353.461 71.0695C349.278 73.2145 345.149 74.287 341.074 74.287ZM375.224 73.3218C373.508 73.3218 371.953 73 370.559 72.3565C369.272 71.6057 368.628 70.0506 368.628 67.6911C368.628 63.9374 369.594 60.1836 371.524 56.4299C373.455 52.5689 375.439 49.1905 377.477 46.2947C379.3 43.828 381.338 41.5221 383.59 39.3771C385.949 37.1249 388.47 35.1944 391.151 33.5856C392.867 32.5131 395.173 31.387 398.069 30.2072C401.072 28.9202 403.592 28.2767 405.63 28.2767C407.346 28.2767 408.847 28.7594 410.134 29.7246C411.421 30.5826 412.065 32.1914 412.065 34.5509C412.065 38.1974 411.099 41.9511 409.169 45.8121C407.346 49.5659 405.415 52.8906 403.377 55.7864C402.412 57.0734 401.447 58.3067 400.482 59.4865C399.516 60.559 398.444 61.6851 397.264 62.8649C401.232 62.8649 404.879 61.7387 408.204 59.4865C411.528 57.127 414.424 54.2849 416.891 50.9601L417.213 50.6384C417.534 50.6384 417.695 50.9601 417.695 51.6036C417.695 52.3544 417.481 53.0515 417.052 53.695C414.907 56.698 412.226 59.3792 409.008 61.7387C405.791 63.991 402.144 65.1171 398.069 65.1171C397.64 65.1171 397.211 65.1171 396.782 65.1171C396.353 65.1171 395.924 65.0635 395.495 64.9562C389.489 70.5332 382.732 73.3218 375.224 73.3218ZM379.407 70.5869C380.909 70.5869 382.517 70.0506 384.233 68.9781C386.057 67.9056 387.451 66.8867 388.416 65.9215C390.239 64.0982 391.902 62.1677 393.403 60.13C394.905 57.985 396.299 55.84 397.586 53.695C399.087 51.121 400.589 48.0644 402.09 44.5251C403.592 40.9859 404.343 37.6611 404.343 34.5509C404.343 32.0841 403.485 30.8507 401.769 30.8507C400.374 30.8507 398.658 31.4406 396.621 32.6204C394.69 33.8001 393.242 34.8726 392.277 35.8379C388.631 39.5916 385.574 43.6671 383.107 48.0644C381.713 50.5311 380.211 53.4269 378.603 56.7516C376.994 60.0764 376.19 63.133 376.19 65.9215C376.19 66.3505 376.19 66.7795 376.19 67.2085C376.297 67.5302 376.404 67.9056 376.511 68.3346C376.94 69.8361 377.906 70.5869 379.407 70.5869ZM416.191 75.4131C415.762 75.4131 415.762 74.9305 416.191 73.9653C416.727 73 417.21 71.9275 417.639 70.7477C418.175 69.568 418.711 68.281 419.247 66.8867C420.32 64.3127 421.5 61.417 422.787 58.1995C424.074 54.982 425.307 51.8717 426.487 48.8687C427.667 45.7585 428.685 43.1309 429.543 40.9859C430.509 38.7336 431.152 37.2857 431.474 36.6422C429.972 38.251 428.149 40.2887 426.004 42.7555C423.966 45.115 422.036 47.4209 420.213 49.6731C418.389 51.9254 416.995 53.695 416.03 54.982C415.708 55.411 415.44 55.6255 415.226 55.6255C415.011 55.6255 414.904 55.3574 414.904 54.8211C414.904 53.9631 415.172 53.1587 415.708 52.408C417.746 49.834 419.998 46.9382 422.465 43.7207C425.039 40.5032 427.345 37.5539 429.383 34.8726C431.42 32.0841 432.707 30.2609 433.244 29.4029C434.423 29.1884 436.139 28.8666 438.392 28.4376C440.751 28.0086 442.36 27.4187 443.218 26.668C443.54 26.3462 443.861 26.1854 444.183 26.1854C444.398 26.1854 444.505 26.3999 444.505 26.8289C444.612 27.1506 444.505 27.526 444.183 27.955C443.54 28.7057 442.413 30.4754 440.805 33.2639C439.303 35.9451 437.641 38.9481 435.818 42.2729C434.102 45.5976 432.493 48.6006 430.991 51.2819C432.707 49.2441 434.37 47.3136 435.978 45.4904C437.694 43.6671 438.874 42.3801 439.518 41.6294C440.805 40.3424 442.574 38.7336 444.827 36.8031C447.079 34.8726 449.438 33.103 451.905 31.4942C454.372 29.8855 456.517 28.9739 458.34 28.7594C458.769 28.6521 459.144 28.5985 459.466 28.5985C459.788 28.5985 460.11 28.5985 460.431 28.5985C462.469 28.5985 463.488 29.3492 463.488 30.8507C463.488 31.4942 463.327 32.245 463.005 33.103C462.684 33.961 462.255 34.819 461.718 35.677C461.075 36.964 460.002 39.0017 458.501 41.7902C456.999 44.4715 455.659 46.9382 454.479 49.1905L462.04 41.6294C463.327 40.3424 465.097 38.7336 467.349 36.8031C469.601 34.8726 471.961 33.103 474.428 31.4942C476.894 29.8855 479.039 28.9739 480.863 28.7594C481.292 28.6521 481.667 28.5985 481.989 28.5985C482.418 28.5985 482.739 28.5985 482.954 28.5985C485.313 28.5985 486.493 29.4565 486.493 31.1725C486.493 32.4595 485.796 34.1755 484.402 36.3205C483.651 37.5002 482.471 39.4844 480.863 42.2729C479.254 45.0614 477.591 48.118 475.875 51.4427C474.267 54.6602 472.872 57.6632 471.693 60.4517C470.513 63.2402 469.923 65.278 469.923 66.565C469.923 68.0665 470.674 68.8172 472.175 68.8172C473.57 68.8172 475.339 68.0129 477.484 66.4041C479.736 64.6881 481.989 62.6504 484.241 60.2909C486.6 57.9314 488.638 55.6791 490.354 53.5341C491.105 52.6761 491.802 51.8181 492.446 50.9601C493.196 49.9949 493.625 49.4586 493.733 49.3514C493.947 49.5659 494.054 49.9412 494.054 50.4775C494.054 51.2282 493.786 51.979 493.25 52.7297C492.821 53.3732 492.392 53.9631 491.963 54.4994C489.925 57.1806 487.566 59.9691 484.884 62.8649C482.31 65.7606 479.468 68.2274 476.358 70.2651C473.248 72.1956 469.923 73.3218 466.384 73.6435C465.311 73.7508 464.239 73.5363 463.166 73C462.094 72.4637 461.558 71.6057 461.558 70.426C461.558 68.9245 461.933 67.1549 462.684 65.1171C463.542 63.0794 464.453 61.0416 465.419 59.0039C466.491 56.9661 467.295 55.3037 467.832 54.0167C469.762 50.263 471.532 46.7237 473.141 43.399C474.749 40.0742 475.875 37.7147 476.519 36.3205C476.841 35.677 477.002 35.1407 477.002 34.7117C477.002 33.961 476.412 33.9074 475.232 34.5509C474.052 35.1944 472.604 36.1596 470.888 37.4466C469.28 38.7336 467.778 40.0206 466.384 41.3076C464.99 42.4874 464.078 43.2917 463.649 43.7207C461.826 45.544 459.627 48.0107 457.053 51.121C454.586 54.2312 452.28 57.5024 450.135 60.9344C447.99 64.2591 446.489 67.3694 445.631 70.2651C444.558 71.2304 443.54 71.713 442.574 71.713C441.824 71.713 441.18 71.4449 440.644 70.9086C440.215 70.3724 440 69.7289 440 68.9781C440 66.8331 440.644 64.3127 441.931 61.417C443.325 58.414 444.451 55.9472 445.309 54.0167C447.24 50.263 449.009 46.7237 450.618 43.399C452.227 40.0742 453.353 37.7147 453.996 36.3205C454.318 35.677 454.479 35.1407 454.479 34.7117C454.479 33.961 453.889 33.9074 452.709 34.5509C451.53 35.1944 450.082 36.1596 448.366 37.4466C446.757 38.7336 445.256 40.0206 443.861 41.3076C442.467 42.4874 441.555 43.2917 441.126 43.7207C438.552 46.402 436.139 49.1369 433.887 51.9254C431.742 54.7139 429.919 57.7169 428.417 60.9344C427.559 62.8649 426.648 65.0099 425.682 67.3694C424.717 69.7289 423.913 71.713 423.269 73.3218C421.875 73.429 420.481 73.8044 419.087 74.4479C417.692 75.0914 416.727 75.4131 416.191 75.4131Z" fill="white"/>
</svg>
